<?xml version="1.0" encoding="UTF-8" standalone="no"?>
<svg
   viewBox="0 0 24 24"
   width="48"
   height="48"
   version="1.1"
   id="svg1"
   sodipodi:docname="gemini-svg.svg"
   inkscape:version="1.4.3 (0d15f75, 2025-12-25)"
   xmlns:inkscape="http://www.inkscape.org/namespaces/inkscape"
   xmlns:sodipodi="http://sodipodi.sourceforge.net/DTD/sodipodi-0.dtd"
   xmlns="http://www.w3.org/2000/svg"
   xmlns:svg="http://www.w3.org/2000/svg">
  <defs
     id="defs1" />
  <sodipodi:namedview
     id="namedview1"
     pagecolor="#ffffff"
     bordercolor="#000000"
     borderopacity="0.25"
     inkscape:showpageshadow="2"
     inkscape:pageopacity="0.0"
     inkscape:pagecheckerboard="0"
     inkscape:deskcolor="#d1d1d1"
     inkscape:zoom="0.54166667"
     inkscape:cx="23.076923"
     inkscape:cy="24"
     inkscape:window-width="944"
     inkscape:window-height="245"
     inkscape:window-x="0"
     inkscape:window-y="25"
     inkscape:window-maximized="0"
     inkscape:current-layer="svg1" />
  <path
     id="circle1"
     style="fill:#3561fa"
     d="M 24,12 A 12,12 0 0 1 12,24 12,12 0 0 1 0,12 12,12 0 0 1 12,0 12,12 0 0 1 24,12 Z" />
  <path
     style="baseline-shift:baseline;display:inline;overflow:visible;vector-effect:none;fill:#ffffff;stroke-linecap:round;stroke-linejoin:round;enable-background:accumulate;stop-color:#000000;stop-opacity:1;opacity:1"
     d="m 17.789062,7.0292969 a 1.25,1.25 0 0 0 -1.759765,0.1816406 l -5.625,6.9238285 -2.5195314,-2.519532 a 1.25,1.25 0 0 0 -1.7695312,0 1.25,1.25 0 0 0 0,1.769532 l 3.5,3.5 a 1.250125,1.250125 0 0 0 1.8554686,-0.0957 l 6.5,-7.9999995 A 1.25,1.25 0 0 0 17.789062,7.0292969 Z"
     id="path1" />
</svg>
